<svg width="289" height="169" viewBox="0 0 289 169" fill="none" xmlns="http://www.w3.org/2000/svg">
<path d="M205.095 134.258C191.144 144.054 166.188 153.536 138.032 157.654C101.505 162.98 59.6124 159.312 29.3686 135.624C27.593 134.239 25.8564 132.775 24.1588 131.254C-35.568 77.2243 26.2661 -11.2438 92.4319 26.122C134.89 50.1024 155.144 58.8439 210.149 32.2488C254.832 10.6488 285.544 77.6926 205.095 134.258Z" fill="#FBD931"/>
<path d="M287.105 17.7905C284.881 7.37104 247.573 1.81007 235.3 0.971042C223.027 0.132019 208.9 0.795436 209.232 9.7125C209.564 18.6296 210.754 46.2003 211.008 67.2344C208.764 66.4149 206.442 65.7124 204.003 65.2246C204.159 63.8783 204.588 62.2588 205.642 60.6978C207.495 57.9271 207.827 54.571 206.851 54.1807C204.803 50.688 194.832 50.5905 191.378 52.1124L189.915 52.8734C189.525 52.4442 189.154 52.2295 188.432 52.5222C186.169 53.4002 189.173 59.4295 191.105 61.9856C191.847 62.9807 192.315 63.7612 192.608 64.4832C192.315 64.5027 192.003 64.5222 191.71 64.5612C182.344 65.4978 181.486 70.5319 186.149 73.01C183.866 74.0636 183.222 76.6002 186.988 79.4295C184.764 80.21 184.315 82.6685 186.051 84.2295C186.5 84.6197 187.144 85.01 187.905 85.3612C184.764 86.649 185.232 89.0685 189.271 90.8636C189.583 91.0002 189.895 91.1173 190.208 91.2343C186.383 101.868 173.973 117.459 176.803 137.088C179.632 156.737 191.905 160.346 201.856 159.546C207.944 159.059 215.476 155.098 220.412 148.581C220.412 148.581 260.237 166.434 269.486 167.781C278.734 169.127 281.271 165.42 283.281 159.644C285.251 153.888 290.773 35.0003 287.105 17.7905Z" fill="#FFFEF2"/>
<path d="M263.71 153.849C261.778 153.849 259.047 153.068 255.144 151.468C242.442 146.239 224.822 139.975 224.647 139.917C224.295 139.8 224.1 139.41 224.237 139.039C224.354 138.688 224.744 138.493 225.115 138.629C225.291 138.688 242.949 144.971 255.671 150.219C260.959 152.405 263.964 152.99 265.408 152.132C266.773 151.312 267.008 148.912 267.339 145.595C267.417 144.834 267.495 144.054 267.593 143.234C269.934 123.097 272.51 58.2585 271.183 42.122C270.559 34.5903 269.778 30.5707 266.988 28.0732C264.198 25.5951 259.32 24.4634 250.481 22.3951L246.032 21.361C230.969 17.8488 220.081 15.2927 216.959 17.7708C216.354 18.2586 216.061 18.922 216.061 19.8781V69.0878C216.061 69.4585 215.749 69.7707 215.378 69.7707C215.008 69.7707 214.695 69.4585 214.695 69.0878V19.8195C214.695 18.4537 215.164 17.3805 216.1 16.6391C219.73 13.7513 230.325 16.2293 246.325 19.9756L250.773 21.0098C259.847 23.1171 264.822 24.2683 267.886 27C271.027 29.7903 271.886 34.0439 272.53 41.9659C273.856 58.161 271.281 123.176 268.92 143.351C268.822 144.171 268.744 144.951 268.666 145.693C268.295 149.4 268.042 152.093 266.071 153.263C265.447 153.654 264.686 153.849 263.71 153.849Z" fill="#202D37"/>
<path d="M272.939 168.756C271.847 168.756 270.656 168.658 269.349 168.463C260.12 167.117 221.72 149.946 220.1 149.224C219.749 149.068 219.593 148.658 219.749 148.327C219.905 147.976 220.315 147.819 220.647 147.976C221.037 148.151 260.49 165.79 269.544 167.117C278.695 168.444 280.803 164.6 282.598 159.429C283.573 156.639 285.447 125.595 286.617 92.9707C288.042 53.2244 287.983 25.1659 286.422 17.9074C285.525 13.7318 278.051 9.75132 264.803 6.43425C254.364 3.81962 242.169 2.10255 235.242 1.63426C222.89 0.795236 214.949 1.98548 211.651 5.16596C210.403 6.37572 209.837 7.83913 209.895 9.67328C209.934 10.9221 210.012 12.5416 210.09 14.4538C210.559 26.5708 211.456 49.1269 211.691 67.2147C211.691 67.5854 211.398 67.8976 211.008 67.8976C210.637 67.8976 210.325 67.6049 210.325 67.2147C210.091 49.1464 209.212 26.6098 208.725 14.4928C208.647 12.5806 208.588 10.9611 208.53 9.7123C208.451 7.50743 209.173 5.65377 210.695 4.19036C214.325 0.658652 222.383 -0.60964 235.32 0.268407C245.134 0.931821 285.29 6.14157 287.749 17.6342C290.012 28.2489 288.647 73.9073 287.964 93.0293C286.89 122.688 284.998 156.639 283.866 159.878C282.929 162.551 281.739 165.263 279.437 166.941C277.778 168.171 275.671 168.756 272.939 168.756Z" fill="#202D37"/>
<path d="M210.734 97.322C209.212 94.2586 207.886 90.7659 206.91 86.5708C204.373 84.5415 202.949 81.4196 202.5 76.7367C202.5 76.7367 199.593 76.8928 196.92 76.5806C200.393 78.6489 200.061 82.2391 196.549 82.7659L196.608 83.1562C197.564 83.5269 197.934 86.083 196.178 86.7659C200.393 90.844 195.476 93.1074 190.208 91.2342C186.383 101.868 173.973 117.459 176.803 137.088C179.632 156.737 191.905 160.346 201.856 159.546C207.944 159.059 215.476 155.098 220.412 148.58C222.461 145.888 224.061 142.746 224.92 139.234C225.388 137.361 225.642 135.39 225.642 133.302C225.583 115.215 216.764 109.517 210.734 97.322Z" fill="#06D188"/>
<path d="M166.89 105.127C166.227 107.117 156.822 108.054 153.29 108.327L153.329 108.873C156.373 108.873 163.339 109.107 163.339 111.234C163.32 113.888 152.51 113.673 152.51 113.673C149.368 120.151 142.617 120.912 142.344 120.951C142.071 120.99 141.31 123.097 141.095 124.171C142.442 124.58 143.261 124.756 143.261 124.756C143.261 124.756 142.071 128.073 141.329 130.59C140.588 133.107 140.334 134.961 141.778 136.697C143.846 139.175 141.251 148.678 138.032 157.673C101.505 163 59.6124 159.332 29.3685 135.644C38.4416 111.117 52.4514 95.7414 55.4563 89.8097C56.2367 88.2878 58.1684 71.6049 57.2319 61.4195C54.5002 62.6097 49.1343 63.7414 46.5002 60.8927C43.0075 57.0878 47.9441 51.8 52.5099 52.8341H52.5294C52.5685 52.8537 52.627 52.8537 52.666 52.8732C54.1099 53.2634 55.1636 54.4927 55.6904 55.6244C56.3928 57.1463 58.6172 58.4536 59.105 55.3902C59.5928 52.3268 60.9587 51.9756 61.6026 51.4878C62.266 51 62.8904 47.9756 61.6026 46.8829C63.4172 47.3707 66.1684 46.0439 65.9148 43.0195C67.5928 44.4049 71.6709 44.1707 72.9587 41.0098C74.5977 42.6488 76.4123 42.6488 77.7977 41.9854C88.3148 47.4878 98.7538 53.6537 98.6952 54.4927C98.6367 55.3902 85.9733 60.7171 85.9733 60.6C85.9733 60.4829 85.2709 88.5609 85.6611 90.0634C92.2757 97.1268 101.056 108.561 108.159 138.512C108.159 138.551 108.178 138.571 108.178 138.61C108.198 138.727 108.237 138.844 108.256 138.961C109.271 143.078 111.71 146.649 115.788 138.824C115.788 138.824 115.788 138.883 115.788 138.98C119.027 132.736 122.168 127.839 123.632 128.132C123.632 128.132 124.822 122.376 126.754 116.21C127.866 112.678 129.232 109.029 130.754 106.258C136.998 94.9024 143.71 90.4146 153.173 87.7609C163.866 84.7365 166.207 90.1024 151.046 97.3414C156.198 96.0926 163.105 95.6439 164.822 97.556C167.378 100.405 158.246 102.18 153.856 102.805C161.251 102.376 167.729 102.668 166.89 105.127Z" fill="#FFFEF2"/>
<path d="M26.2859 145.79C26.2274 145.79 26.1688 145.79 26.0908 145.771C25.7201 145.673 25.5249 145.283 25.6225 144.932C32.1005 122.102 43.4761 106.024 50.2664 96.4243C52.3737 93.439 54.0517 91.078 54.8517 89.4975C55.4566 88.2877 57.4078 72.8536 56.6274 62.3951C53.7005 63.4488 48.6664 64.2683 45.9932 61.361C44.3152 59.5463 44.1786 57.1073 45.642 55.0195C47.1835 52.8146 50.5005 51.1756 53.6225 52.4829C53.9737 52.6195 54.1298 53.0293 53.9932 53.3805C53.8566 53.7317 53.4469 53.8878 53.0956 53.7512C50.6371 52.7171 47.9834 54.0439 46.7542 55.8C46.2274 56.5414 45.2127 58.4927 46.9883 60.4244C49.2517 62.8829 54.1883 61.9853 56.9591 60.7756C57.1542 60.6975 57.3883 60.6975 57.5834 60.8146C57.7786 60.9317 57.8956 61.1268 57.9152 61.3414C58.8322 71.2926 56.9981 88.2682 56.081 90.1024C55.242 91.7804 53.5444 94.1609 51.3981 97.2048C44.6469 106.727 33.3688 122.688 26.9493 145.283C26.8518 145.595 26.5786 145.79 26.2859 145.79Z" fill="#202D37"/>
<path d="M48.6075 58.8634C48.3343 58.8634 48.0807 58.7073 47.9831 58.4342C47.8465 58.0829 48.0221 57.6927 48.3538 57.5366C50.9489 56.5024 52.5099 56.5024 53.2709 56.5024C53.6416 56.5024 53.9538 56.8146 53.9538 57.1854C53.9538 57.5561 53.6416 57.8683 53.2709 57.8683C52.5489 57.8683 51.2026 57.8683 48.8612 58.8049C48.7636 58.8439 48.6855 58.8634 48.6075 58.8634Z" fill="#202D37"/>
<path d="M70.6368 55.0197C70.188 55.0197 69.7978 54.649 69.7978 54.1807V52.0539C69.7978 51.6051 70.1685 51.2148 70.6368 51.2148C71.0856 51.2148 71.4758 51.5856 71.4758 52.0539V54.1807C71.4758 54.6295 71.1051 55.0197 70.6368 55.0197Z" fill="#202D37"/>
<path d="M77.7197 52.5222C77.2709 52.5222 76.8806 52.1514 76.8806 51.6831V49.5758C76.8806 49.1271 77.2514 48.7368 77.7197 48.7368C78.1684 48.7368 78.5587 49.1075 78.5587 49.5758V51.7027C78.5587 52.1514 78.188 52.5222 77.7197 52.5222Z" fill="#202D37"/>
<path d="M70.9101 63.8194C70.8906 63.8194 70.9101 63.8194 70.9101 63.8194C67.554 63.7413 65.0759 61.595 64.4125 58.1803C64.3345 57.8096 64.5881 57.4584 64.9589 57.3804C65.3296 57.3023 65.6808 57.556 65.7589 57.9267C66.3052 60.7169 68.2369 62.395 70.9296 62.4535C71.3003 62.4535 71.6125 62.7657 71.593 63.156C71.593 63.5267 71.2808 63.8194 70.9101 63.8194Z" fill="#202D37"/>
<path d="M109.876 146.981C109.564 146.981 109.271 146.766 109.212 146.434C102.208 112.307 93.1149 99.0001 85.1734 90.5123C85.0954 90.4342 85.0368 90.3367 85.0173 90.2196C84.9393 89.9464 84.7442 89.205 85.0173 74.7465C85.0759 71.0001 85.1734 67.3709 85.2125 64.9709C85.2515 63.644 85.271 62.5513 85.2905 61.7709C85.31 61.244 85.31 60.9123 85.3295 60.6782C85.3295 60.6392 85.3295 60.6196 85.3295 60.5806H85.349C85.3881 60.2294 85.4466 60.1709 85.5832 60.0538C85.6807 59.9757 85.7978 59.9172 85.9149 59.8977C87.0271 59.5465 95.9246 55.6831 97.8368 54.3953C95.9051 52.7172 85.6417 46.6879 74.7344 41.1075C74.4027 40.9319 74.2661 40.5221 74.4417 40.1904C74.6173 39.8587 75.0271 39.7221 75.3588 39.8977C80.8027 42.6684 86.832 45.9855 91.5344 48.7367C99.5149 53.4197 99.4759 54.005 99.4368 54.5123C99.3978 55.0196 99.3588 55.4879 92.7442 58.4928C92.6856 58.5123 88.4515 60.4245 86.7149 61.0684C86.6173 64.7172 86.0905 87.2733 86.3637 89.7318C94.4222 98.3757 103.573 111.898 110.598 146.161C110.676 146.532 110.442 146.883 110.071 146.961C109.973 146.981 109.934 146.981 109.876 146.981Z" fill="#202D37"/>
<path d="M75.0856 100.893C73.4466 100.893 70.7929 100.093 67.7685 98.6488C64.9002 97.3024 60.3734 94.7463 55.0271 90.3171C54.7344 90.0829 54.6954 89.6537 54.9295 89.361C55.1637 89.0683 55.5929 89.0293 55.8856 89.2634C65.4076 97.1659 73.3295 99.8195 75.4563 99.4878C77.1149 99.2341 82.2661 93.3024 85.1344 89.6146C85.3685 89.322 85.7978 89.2634 86.0905 89.4976C86.3832 89.7317 86.4417 90.161 86.2075 90.4537C84.9197 92.1122 78.3441 100.424 75.671 100.834C75.4953 100.893 75.2807 100.893 75.0856 100.893Z" fill="#202D37"/>
<path d="M80.0029 112.249C80.7464 112.249 81.3492 111.646 81.3492 110.902C81.3492 110.159 80.7464 109.556 80.0029 109.556C79.2593 109.556 78.6565 110.159 78.6565 110.902C78.6565 111.646 79.2593 112.249 80.0029 112.249Z" fill="#202D37"/>
<path d="M80.2565 125.498C80.2565 126.044 80.8224 126.512 81.5248 126.512C82.2273 126.512 82.7931 126.063 82.7931 125.498C82.7931 124.932 82.2273 124.483 81.5248 124.483C80.8224 124.483 80.2565 124.932 80.2565 125.498Z" fill="#202D37"/>
<path d="M81.7979 140.776C81.3101 141.049 81.2125 141.771 81.5637 142.376C81.9149 142.98 82.5783 143.234 83.0662 142.961C83.554 142.688 83.6515 141.966 83.3003 141.361C82.9491 140.756 82.2857 140.502 81.7979 140.776Z" fill="#202D37"/>
<path d="M61.5635 107.898C61.2318 107.898 60.9001 107.839 60.5879 107.722C58.4221 106.942 57.3294 103.624 55.944 99.4489C55.5733 98.3562 55.2026 97.2245 54.7928 96.0733C54.6562 95.722 54.8514 95.3318 55.2026 95.1952C55.5538 95.0586 55.944 95.2538 56.0806 95.605C56.5099 96.7757 56.8806 97.9074 57.2514 99.0196C58.4611 102.688 59.5148 105.868 61.0562 106.434C61.6026 106.629 62.2465 106.493 63.0465 106.005C65.5635 104.444 68.6074 101.751 68.6465 101.712C68.9196 101.459 69.3684 101.478 69.6026 101.771C69.8562 102.044 69.8367 102.493 69.544 102.727C69.4074 102.844 66.3831 105.537 63.7489 107.156C63.0074 107.644 62.266 107.898 61.5635 107.898Z" fill="#202D37"/>
<path d="M88.2173 104.444C87.0856 104.444 84.9783 103.839 80.6271 101.302C80.2954 101.107 80.1978 100.697 80.3734 100.366C80.5685 100.034 80.9783 99.9363 81.31 100.112C86.9685 103.409 88.3539 103.117 88.5685 103.019C88.6271 103 88.6466 102.98 88.6466 102.922C89.0954 101.146 89.7002 95.5851 89.7002 95.5266C89.7393 95.1558 90.071 94.8827 90.4612 94.9217C90.8319 94.9607 91.1051 95.2924 91.0661 95.6826C91.0466 95.9168 90.4417 101.4 89.9734 103.253C89.8563 103.741 89.5441 104.092 89.0954 104.288C88.8807 104.385 88.6076 104.444 88.2173 104.444Z" fill="#202D37"/>
<path d="M79.2809 146.98C79.2614 146.98 79.2614 146.98 79.2419 146.98C78.8712 146.961 78.5785 146.649 78.598 146.258C78.7151 144.151 78.7541 138.356 77.6809 136.795C76.4321 135 75.6517 132.053 77.2126 129.224C78.5785 126.785 77.6809 124.034 76.6273 121.654C75.359 118.805 75.4956 111.429 76.0419 105.478C76.0809 105.107 76.4126 104.834 76.7834 104.854C77.1541 104.893 77.4273 105.224 77.4078 105.595C76.7443 112.854 76.9199 118.941 77.876 121.088C79.0663 123.761 80.0419 126.902 78.4029 129.868C77.1346 132.151 77.7785 134.532 78.7931 135.995C80.3346 138.219 80.0029 145.478 79.9638 146.297C79.9443 146.707 79.6321 146.98 79.2809 146.98Z" fill="#202D37"/>
<path d="M114.383 142.551C114.286 142.551 114.208 142.532 114.11 142.493C113.759 142.337 113.603 141.946 113.759 141.595C115.086 138.493 116.978 134.961 118.832 132.151C121.095 128.737 122.344 127.761 123.066 127.488C123.632 124.893 126.344 112.834 130.169 105.907C136.861 93.7318 144.139 89.5757 152.998 87.0781C158.11 85.6342 161.622 85.9659 162.364 87.9562C163.3 90.4537 159.183 94.1805 151.359 97.9464C151.027 98.1025 150.617 97.9659 150.442 97.6342C150.286 97.3025 150.422 96.8927 150.754 96.7171C159.105 92.7171 161.505 89.5757 161.076 88.444C160.783 87.6635 158.422 86.961 153.349 88.4049C144.822 90.8049 137.817 94.8244 131.359 106.571C127.261 114.024 124.334 128.112 124.315 128.249C124.237 128.6 123.905 128.834 123.554 128.795C123.261 128.854 122.071 129.712 119.827 133.166C118.071 135.878 116.276 139.234 115.027 142.141C114.891 142.395 114.656 142.551 114.383 142.551Z" fill="#202D37"/>
<path d="M137.622 134.942C137.564 134.942 137.525 134.942 137.466 134.922C127.71 132.561 123.378 128.776 123.203 128.62C122.93 128.366 122.891 127.937 123.144 127.664C123.398 127.39 123.827 127.351 124.1 127.605C124.159 127.664 128.413 131.332 137.778 133.595C138.149 133.693 138.364 134.044 138.286 134.415C138.208 134.747 137.915 134.942 137.622 134.942Z" fill="#202D37"/>
<path d="M141.642 146.98C141.583 146.98 141.525 146.98 141.466 146.961C141.095 146.863 140.881 146.492 140.978 146.122C142.676 139.858 142.188 138.648 141.212 137.048C139.808 134.785 139.983 132.814 140.686 130.375C141.212 128.58 141.973 126.356 142.364 125.224C139.964 124.619 132.412 122.356 126.286 116.697C126.012 116.444 125.993 116.014 126.247 115.741C126.5 115.468 126.929 115.448 127.203 115.702C134.149 122.122 143.3 124.053 143.378 124.073C143.573 124.112 143.749 124.229 143.827 124.405C143.925 124.58 143.944 124.775 143.866 124.97C143.847 125.009 142.676 128.307 141.954 130.765C141.212 133.283 141.31 134.687 142.325 136.326C143.71 138.59 143.905 140.365 142.247 146.473C142.208 146.785 141.934 146.98 141.642 146.98Z" fill="#202D37"/>
<path d="M141.095 124.854C141.056 124.854 140.998 124.854 140.959 124.834C140.588 124.756 140.354 124.385 140.432 124.034C140.549 123.488 140.803 122.668 141.076 121.946C141.525 120.737 141.817 120.346 142.266 120.288C142.968 120.21 149.037 119.293 151.905 113.38C152.022 113.146 152.256 112.99 152.529 112.99C155.729 113.049 161.271 112.698 162.5 111.507C162.656 111.351 162.656 111.254 162.656 111.215C162.656 111.176 162.656 111.078 162.5 110.941C161.251 109.732 155.378 109.459 151.964 109.556C151.593 109.556 151.281 109.263 151.261 108.893C151.242 108.522 151.554 108.21 151.925 108.19C152.881 108.151 161.388 107.937 163.456 109.946C163.924 110.395 164.022 110.883 164.022 111.195C164.022 111.507 163.924 111.995 163.456 112.444C161.622 114.239 154.871 114.337 152.939 114.317C149.934 120.073 144.139 121.322 142.715 121.556C142.461 122.024 141.973 123.39 141.778 124.268C141.7 124.639 141.427 124.854 141.095 124.854Z" fill="#202D37"/>
<path d="M151.827 110.649C151.769 110.649 151.71 110.649 151.652 110.629C151.281 110.532 151.066 110.161 151.164 109.79C151.437 108.717 151.359 103.488 150.208 99.5852C150.11 99.2144 150.305 98.8437 150.676 98.7462C151.027 98.6486 151.417 98.8437 151.515 99.2144C152.686 103.156 152.842 108.736 152.491 110.141C152.393 110.453 152.12 110.649 151.827 110.649Z" fill="#202D37"/>
<path d="M151.612 103.722C151.554 103.722 151.515 103.722 151.495 103.722C151.203 103.663 150.988 103.429 150.949 103.136C150.89 102.766 151.164 102.414 151.534 102.356C151.593 102.356 151.632 102.356 151.69 102.356C152.1 102.336 155.007 102.005 158.129 101.341C163.534 100.17 164.432 99.0192 164.568 98.6875C164.607 98.5899 164.705 98.3948 164.334 98.0046C162.754 96.2485 154.539 96.8729 149.173 98.5704C148.822 98.6875 148.432 98.4924 148.315 98.1216C148.198 97.7704 148.393 97.3802 148.764 97.2631C153.446 95.7607 162.988 94.4338 165.368 97.0875C166.266 98.1021 165.993 98.9802 165.739 99.4095C165.466 99.8973 164.646 101.361 158.071 102.746C155.495 103.292 152.334 103.722 151.612 103.722ZM152.276 102.844C152.276 102.863 152.295 102.902 152.295 102.941C152.276 102.902 152.276 102.883 152.276 102.844ZM151.729 102.375C151.788 102.395 151.846 102.414 151.905 102.434C151.866 102.395 151.788 102.375 151.729 102.375Z" fill="#202D37"/>
<path d="M151.944 109.107C151.593 109.107 151.281 108.834 151.261 108.463C151.242 108.093 151.534 107.761 151.905 107.741C151.944 107.741 155.456 107.527 159.027 107.019C165.798 106.044 166.247 104.951 166.247 104.912C166.325 104.697 166.266 104.6 166.208 104.522C165.837 104.034 163.886 102.941 153.876 103.488C153.505 103.507 153.173 103.215 153.154 102.844C153.134 102.473 153.427 102.141 153.798 102.122C164.373 101.536 166.559 102.746 167.3 103.702C167.671 104.19 167.749 104.756 167.534 105.361C167.222 106.258 166.013 107.41 159.203 108.385C155.593 108.912 152.022 109.127 151.983 109.127C151.983 109.107 151.964 109.107 151.944 109.107Z" fill="#202D37"/>
<path d="M141.096 119.02C140.881 119.02 140.666 118.922 140.53 118.727C140.315 118.415 140.393 117.985 140.705 117.771C143.222 116.034 144.686 114.044 145.037 111.839C145.505 108.932 144.003 106.181 142.657 104.405C142.539 104.249 142.5 104.034 142.539 103.859C142.578 103.663 142.715 103.507 142.871 103.41C145.037 102.239 148.393 99.722 148.237 98.0049C148.217 97.8098 148.061 97.6537 147.749 97.5366C146.091 96.8342 141.661 97.5366 137.622 100.737C137.33 100.971 136.9 100.912 136.666 100.62C136.432 100.327 136.491 99.8976 136.783 99.6634C140.998 96.3269 146.032 95.3122 148.296 96.2683C149.076 96.6 149.544 97.1659 149.603 97.8878C149.837 100.541 145.876 103.215 144.198 104.229C145.564 106.22 146.891 109.049 146.383 112.093C145.974 114.668 144.315 116.971 141.466 118.922C141.369 118.98 141.232 119.02 141.096 119.02Z" fill="#202D37"/>
<path d="M192.1 75.0584C186.052 74.9023 182.793 72.1511 182.695 69.5365C182.617 67.2535 184.92 64.5609 191.632 63.8779C191.944 63.8389 192.237 63.8194 192.549 63.7999C192.92 63.7609 193.252 64.0535 193.291 64.4243C193.33 64.795 193.037 65.1267 192.666 65.1657C192.373 65.1852 192.081 65.2048 191.788 65.2438C186.013 65.8291 184.022 67.8974 184.081 69.4974C184.159 71.4291 187.008 73.5755 192.139 73.7121C192.51 73.7316 192.822 74.0438 192.803 74.4145C192.783 74.7657 192.471 75.0584 192.1 75.0584Z" fill="#202D37"/>
<path d="M247.925 80.795C243.378 80.795 239.242 80.3658 235.534 79.4877C230.344 78.2584 227.476 76.5023 226.266 75.7414C226.169 75.6828 226.091 75.6438 226.013 75.5853C219.417 71.6243 212.276 67.6048 203.886 65.8877C203.515 65.8097 203.281 65.4585 203.359 65.0877C203.437 64.717 203.788 64.4828 204.159 64.5609C212.764 66.3365 220.022 70.4146 226.715 74.4341C226.793 74.4731 226.871 74.5316 226.969 74.5902C234.227 79.0584 244.822 80.4438 258.442 78.7267C258.812 78.6877 259.164 78.9414 259.203 79.3121C259.242 79.6828 258.988 80.034 258.617 80.0731C254.852 80.5609 251.281 80.795 247.925 80.795Z" fill="#202D37"/>
<path d="M192.607 64.4828C193.056 65.6145 193.056 66.6291 192.998 68.1901L192.549 68.2877C195.983 69.8096 201.017 69.0486 201.017 69.0486C202.227 68.7365 203.339 68.5218 204.12 68.3852C204.12 68.3852 203.807 67.0584 204.022 65.2243C204.178 63.8779 204.607 62.2584 205.661 60.6974C207.534 57.9267 208.51 55.5852 207.612 53.1853C206.188 49.3804 193.31 47.1755 187.885 52.834C186.403 54.395 187.32 57.7901 191.105 61.9657C191.944 62.9023 192.315 63.7609 192.607 64.4828Z" fill="#06D188"/>
<path d="M195.613 83.507C193.954 83.507 191.847 82.9802 189.369 81.6924C184.549 79.1948 183.574 76.8924 183.593 75.4095C183.613 74.1217 184.432 73.0095 185.837 72.3656C186.188 72.2095 186.578 72.3656 186.735 72.6973C186.891 73.0485 186.735 73.4387 186.403 73.5948C185.876 73.8485 184.978 74.4143 184.959 75.429C184.939 76.1509 185.408 78.0826 189.993 80.4631C194.618 82.8631 197.603 82.3753 198.422 80.9119C198.969 79.9363 198.5 78.3168 196.53 77.146C196.198 76.9509 196.1 76.5412 196.296 76.2095C196.491 75.8777 196.9 75.7802 197.232 75.9753C199.944 77.5948 200.491 80.0143 199.613 81.5753C198.988 82.746 197.622 83.507 195.613 83.507Z" fill="#202D37"/>
<path d="M194.773 87.644C191.749 87.644 187.261 86.2587 185.583 84.7367C184.568 83.8196 184.12 82.5514 184.373 81.3611C184.627 80.1514 185.505 79.2148 186.793 78.7855C187.144 78.6684 187.534 78.8636 187.651 79.2148C187.768 79.566 187.593 79.9562 187.222 80.0733C186.403 80.3465 185.856 80.9318 185.7 81.6343C185.544 82.3757 185.837 83.1367 186.5 83.7221C188.081 85.166 192.744 86.4928 195.378 86.2587C196.315 86.1806 196.666 85.4977 196.783 84.9513C196.939 84.1709 196.686 83.4879 196.529 83.4099C196.159 83.3318 195.944 82.9611 196.022 82.5904C196.1 82.2196 196.471 81.9855 196.842 82.0831C197.837 82.2977 198.266 83.566 198.188 84.7172C198.071 86.3562 197.017 87.4879 195.495 87.6245C195.261 87.644 195.027 87.644 194.773 87.644Z" fill="#202D37"/>
<path d="M193.837 92.5805C192.334 92.5805 190.617 92.2293 188.978 91.4878C186.5 90.3756 185.134 88.9708 185.154 87.5073C185.173 86.8439 185.505 85.5951 187.632 84.7171C187.983 84.5805 188.373 84.7366 188.529 85.0878C188.666 85.439 188.51 85.8293 188.159 85.9854C187.125 86.4146 186.539 86.961 186.52 87.5268C186.52 88.1903 187.3 89.2439 189.525 90.239C192.842 91.722 196.061 91.3903 196.881 90.1805C197.329 89.4976 196.9 88.4439 195.69 87.2537C195.417 87 195.417 86.5512 195.671 86.2976C195.925 86.0244 196.373 86.0244 196.627 86.2781C199.007 88.5805 198.52 90.2 198.012 90.9415C197.29 92.0146 195.71 92.5805 193.837 92.5805Z" fill="#202D37"/>
<path d="M215.359 90.2196C215.339 90.2196 215.3 90.2196 215.281 90.2196C206.871 89.283 202.812 85.4391 201.876 77.4586C199.573 77.5367 193.544 77.5367 192.1 75.4489C191.808 75.0391 191.573 74.3562 191.964 73.4391C193.837 69.166 204.081 67.6635 205.251 67.5074C205.622 67.4489 205.973 67.7221 206.012 68.0928C206.071 68.4635 205.798 68.8147 205.427 68.8538C202.481 69.244 194.539 70.9416 193.212 73.966C193.056 74.3367 193.115 74.5123 193.212 74.6489C194.071 75.8977 199.125 76.2098 202.442 76.0342C202.812 76.0147 203.125 76.2879 203.164 76.6586C203.925 84.522 207.359 87.9367 215.437 88.8342C215.808 88.8733 216.081 89.205 216.042 89.5952C216.003 89.9659 215.71 90.2196 215.359 90.2196Z" fill="#202D37"/>
<path d="M250.832 100.776C239.573 100.776 229.856 96.2684 226.305 94.6294C225.739 94.3757 225.173 94.1026 224.978 94.044C224.666 94.0831 223.612 94.5318 222.676 94.9221C219.749 96.1514 214.871 98.2001 210.676 98.005C210.305 97.9855 210.012 97.6733 210.032 97.2831C210.051 96.9123 210.364 96.6196 210.754 96.6392C214.637 96.8148 219.339 94.844 222.149 93.6733C223.905 92.9318 224.646 92.6392 225.134 92.6977C225.407 92.7367 225.759 92.8928 226.871 93.4001C230.949 95.2928 243.339 101.029 256.627 98.9806C256.998 98.9221 257.349 99.1757 257.407 99.5465C257.466 99.9172 257.212 100.268 256.842 100.327C254.812 100.639 252.802 100.776 250.832 100.776Z" fill="#202D37"/>
<path d="M198.09 69.9267C196.081 69.9267 193.447 69.6536 191.476 68.5219C191.144 68.3267 191.046 67.917 191.222 67.5853C191.417 67.2536 191.827 67.156 192.159 67.3316C195.32 69.1853 200.842 68.3853 200.9 68.3658C201.271 68.3072 201.622 68.5609 201.681 68.9316C201.739 69.3023 201.485 69.6536 201.115 69.7121C201.017 69.7316 199.768 69.9267 198.09 69.9267Z" fill="#202D37"/>
<path d="M198.461 57.049C197.817 57.049 197.115 57.0099 196.354 56.9514C193.973 56.7368 192.198 56.0929 190.91 55.0002C190.617 54.7465 190.578 54.3173 190.832 54.0441C191.086 53.7514 191.515 53.7124 191.788 53.966C192.842 54.8636 194.383 55.3904 196.471 55.5856C200.647 55.9758 203.008 55.0978 204.569 54.2782C204.9 54.1026 205.31 54.2392 205.486 54.5709C205.661 54.9026 205.525 55.3124 205.193 55.488C203.769 56.249 201.72 57.049 198.461 57.049Z" fill="#202D37"/>
<path d="M206.929 131.644C206.929 132.912 206.656 133.947 206.11 134.747C205.563 135.547 204.685 136.112 203.476 136.464V139.8C203.476 139.898 203.437 139.976 203.378 140.054C203.319 140.112 203.222 140.151 203.124 140.151H198.715C198.617 140.151 198.539 140.112 198.461 140.054C198.402 139.995 198.363 139.898 198.363 139.8V136.834C197.544 136.795 196.783 136.737 196.119 136.659C196.041 136.639 195.963 136.6 195.905 136.522C195.846 136.444 195.807 136.366 195.807 136.269L196.159 132.717C196.178 132.6 196.217 132.522 196.295 132.464C196.373 132.405 196.471 132.386 196.588 132.405C196.861 132.464 197.134 132.522 197.427 132.561C197.719 132.6 198.09 132.659 198.539 132.717C198.988 132.776 199.417 132.795 199.807 132.795C200.237 132.815 200.588 132.756 200.9 132.639C201.193 132.522 201.407 132.386 201.524 132.21C201.641 132.034 201.739 131.878 201.778 131.742C201.817 131.605 201.856 131.469 201.856 131.371C201.856 131.254 201.837 131.117 201.778 130.961C201.739 130.825 201.641 130.63 201.505 130.415C201.368 130.2 201.115 129.986 200.783 129.771C200.432 129.556 200.022 129.4 199.515 129.283C198.949 129.147 198.402 128.932 197.876 128.6C197.349 128.288 196.861 127.898 196.412 127.41C195.963 126.942 195.593 126.337 195.319 125.634C195.046 124.932 194.91 124.152 194.91 123.332C194.91 122.161 195.202 121.186 195.807 120.386C196.412 119.586 197.251 119 198.383 118.61V115.176C198.383 115.078 198.422 115 198.48 114.922C198.539 114.844 198.637 114.805 198.734 114.805H203.144C203.241 114.805 203.319 114.844 203.398 114.922C203.476 115 203.515 115.078 203.515 115.176V118.142C204.295 118.181 205.076 118.239 205.856 118.317C205.934 118.337 206.012 118.376 206.09 118.454C206.149 118.532 206.188 118.61 206.168 118.708L205.817 122.259C205.798 122.356 205.758 122.434 205.68 122.512C205.602 122.571 205.505 122.61 205.407 122.571C204.178 122.298 203.066 122.161 202.071 122.161C201.661 122.142 201.31 122.2 200.998 122.317C200.705 122.434 200.49 122.591 200.354 122.766C200.217 122.942 200.139 123.098 200.08 123.234C200.041 123.371 200.002 123.488 200.002 123.625C200.002 123.742 200.022 123.859 200.08 124.015C200.119 124.152 200.217 124.347 200.373 124.561C200.51 124.776 200.763 124.991 201.115 125.205C201.466 125.42 201.876 125.576 202.383 125.693C202.949 125.83 203.495 126.064 204.022 126.376C204.549 126.688 205.037 127.078 205.485 127.566C205.934 128.054 206.285 128.639 206.558 129.342C206.793 130.064 206.929 130.825 206.929 131.644Z" fill="#202D37"/>
<path d="M203.124 140.834H198.714C198.441 140.834 198.188 140.737 197.992 140.542C197.797 140.346 197.7 140.093 197.7 139.82V137.498C197.114 137.459 196.568 137.4 196.061 137.342C195.788 137.303 195.573 137.185 195.397 136.971C195.241 136.776 195.144 136.542 195.144 136.288C195.144 136.268 195.144 136.249 195.144 136.229L195.495 132.678C195.534 132.366 195.69 132.112 195.924 131.937C196.158 131.761 196.471 131.703 196.763 131.761C197.017 131.82 197.29 131.878 197.563 131.917C197.836 131.956 198.207 132.015 198.636 132.073C199.066 132.132 199.456 132.151 199.827 132.151C200.178 132.151 200.451 132.132 200.666 132.034C200.9 131.937 200.958 131.859 200.978 131.839C201.075 131.683 201.134 131.585 201.153 131.527C201.192 131.429 201.192 131.39 201.192 131.371C201.192 131.351 201.192 131.293 201.153 131.176C201.134 131.117 201.095 131 200.939 130.785C200.9 130.707 200.763 130.571 200.432 130.376C200.139 130.2 199.788 130.064 199.358 129.966C198.734 129.81 198.11 129.556 197.524 129.205C196.958 128.854 196.412 128.424 195.924 127.898C195.417 127.351 195.007 126.688 194.695 125.888C194.402 125.107 194.246 124.249 194.246 123.332C194.246 122.025 194.597 120.893 195.28 119.976C195.866 119.195 196.685 118.571 197.719 118.142V115.176C197.719 114.903 197.817 114.668 197.992 114.454C198.188 114.239 198.461 114.122 198.734 114.122H203.144C203.417 114.122 203.69 114.239 203.885 114.434C204.08 114.629 204.197 114.903 204.197 115.176V117.498C204.783 117.537 205.349 117.576 205.914 117.654H205.934C206.168 117.693 206.402 117.81 206.558 118.005C206.753 118.22 206.851 118.512 206.812 118.805L206.461 122.337V122.356C206.422 122.629 206.285 122.883 206.051 123.059C205.797 123.254 205.505 123.312 205.212 123.254C204.041 123 202.968 122.864 202.012 122.844C201.68 122.844 201.407 122.864 201.192 122.961C200.958 123.059 200.88 123.137 200.861 123.156C200.744 123.332 200.685 123.429 200.685 123.468C200.666 123.527 200.646 123.585 200.646 123.624C200.646 123.624 200.646 123.683 200.685 123.8C200.705 123.839 200.744 123.956 200.9 124.19C200.958 124.268 201.075 124.424 201.427 124.62C201.719 124.795 202.071 124.932 202.5 125.029C203.124 125.185 203.729 125.439 204.314 125.79C204.9 126.122 205.446 126.571 205.934 127.098C206.441 127.644 206.851 128.307 207.144 129.107C207.436 129.888 207.592 130.746 207.592 131.644C207.592 133.049 207.28 134.239 206.636 135.137C206.071 135.937 205.232 136.561 204.119 136.971V139.82C204.119 140.093 204.022 140.346 203.827 140.542C203.651 140.737 203.397 140.834 203.124 140.834ZM199.046 139.468H202.792V136.464C202.792 136.151 202.988 135.898 203.28 135.8C204.314 135.488 205.095 135 205.544 134.337C206.012 133.654 206.246 132.756 206.246 131.624C206.246 130.883 206.129 130.2 205.895 129.576C205.661 128.951 205.349 128.444 204.958 128.015C204.549 127.585 204.119 127.234 203.651 126.961C203.183 126.688 202.695 126.473 202.188 126.356C201.641 126.22 201.153 126.024 200.744 125.79C200.314 125.537 200.002 125.244 199.788 124.951C199.612 124.678 199.475 124.444 199.417 124.249C199.339 124.034 199.3 123.839 199.3 123.644C199.3 123.449 199.339 123.234 199.417 123.02C199.495 122.825 199.593 122.629 199.768 122.395C199.983 122.103 200.295 121.868 200.724 121.712C201.114 121.556 201.563 121.498 202.051 121.517C202.968 121.537 204.022 121.654 205.134 121.868L205.407 119.02C204.763 118.961 204.1 118.903 203.436 118.883C203.066 118.864 202.792 118.571 202.792 118.2V115.527H199.046V118.629C199.046 118.922 198.871 119.176 198.597 119.273C197.622 119.624 196.861 120.132 196.353 120.815C195.846 121.498 195.593 122.317 195.593 123.351C195.593 124.093 195.71 124.776 195.963 125.42C196.197 126.044 196.529 126.571 196.9 126.981C197.31 127.41 197.739 127.761 198.207 128.054C198.656 128.327 199.144 128.522 199.651 128.639C200.217 128.776 200.705 128.971 201.114 129.205C201.563 129.478 201.875 129.751 202.071 130.064C202.246 130.337 202.363 130.551 202.422 130.766C202.5 130.981 202.539 131.195 202.539 131.39C202.539 131.585 202.5 131.781 202.422 131.995C202.344 132.19 202.246 132.405 202.09 132.639C201.895 132.932 201.563 133.166 201.153 133.322C200.763 133.478 200.314 133.537 199.807 133.517C199.417 133.517 198.968 133.478 198.48 133.439C198.012 133.381 197.622 133.322 197.329 133.283C197.153 133.264 196.997 133.224 196.822 133.185L196.549 136.054C197.114 136.112 197.739 136.171 198.422 136.19C198.792 136.21 199.066 136.503 199.066 136.873V139.468H199.046ZM205.446 118.668C205.446 118.688 205.446 118.688 205.446 118.668V118.668Z" fill="#202D37"/>
<path d="M168.1 56.2877C168.003 56.2877 167.905 56.2682 167.807 56.2097C167.476 56.0536 167.32 55.6438 167.495 55.2926C167.573 55.1365 174.929 39.956 177.368 34.7072C177.524 34.356 177.934 34.2194 178.266 34.3755C178.617 34.5316 178.754 34.9414 178.598 35.2731C176.159 40.5414 168.802 55.7218 168.724 55.8779C168.588 56.1511 168.354 56.2877 168.1 56.2877Z" fill="#202D37"/>
<path d="M175.983 54.2393C175.71 54.2393 175.418 54.2002 175.144 54.1222C174.286 53.8685 173.603 53.2246 173.213 52.3271C172.842 51.4685 172.803 50.4929 173.096 49.5368C173.7 47.5466 175.593 46.3368 177.33 46.8637C178.188 47.1173 178.871 47.7612 179.261 48.6588C179.632 49.5173 179.671 50.4929 179.379 51.449C178.891 53.1271 177.466 54.2393 175.983 54.2393ZM176.491 48.1125C175.613 48.1125 174.735 48.8539 174.403 49.9466C174.208 50.5905 174.227 51.2344 174.481 51.8003C174.696 52.3076 175.086 52.6783 175.554 52.8149C176.569 53.1271 177.7 52.3271 178.091 51.0588C178.286 50.4149 178.266 49.771 178.013 49.2051C177.798 48.6978 177.408 48.3271 176.939 48.1905C176.803 48.132 176.647 48.1125 176.491 48.1125Z" fill="#202D37"/>
<path d="M167.964 44.5609C167.456 44.5609 166.949 44.4439 166.481 44.1707C165.7 43.7219 165.173 42.9414 164.998 41.9853C164.842 41.0683 165.017 40.0926 165.505 39.2341C166.539 37.4195 168.686 36.6975 170.247 37.5951C171.827 38.4926 172.256 40.717 171.203 42.5122C170.5 43.8195 169.212 44.5609 167.964 44.5609ZM168.783 38.5902C168.022 38.5902 167.203 39.0975 166.715 39.9365C166.383 40.5219 166.247 41.1658 166.364 41.7512C166.461 42.2975 166.754 42.7463 167.183 42.9805C168.1 43.5073 169.388 43 170.051 41.8487C170.715 40.6975 170.52 39.3317 169.603 38.7853C169.349 38.6488 169.076 38.5902 168.783 38.5902Z" fill="#202D37"/>
<path d="M160.373 55.7416C159.983 55.7416 159.69 55.4294 159.69 55.0587C159.69 54.8245 159.729 49.4392 160.042 47.6246C160.1 47.2538 160.451 47.0002 160.822 47.0587C161.193 47.1172 161.447 47.4684 161.388 47.8392C161.095 49.5367 161.056 55.0001 161.056 55.0587C161.056 55.4294 160.744 55.7416 160.373 55.7416Z" fill="#202D37"/>
<path d="M157.993 50.8831C157.642 50.8831 157.349 50.6099 157.31 50.2587C157.271 49.888 157.564 49.5563 157.934 49.5172C159.476 49.3807 163.105 49.5172 163.261 49.5172C163.632 49.5368 163.925 49.8489 163.925 50.2197C163.905 50.5904 163.612 50.8831 163.222 50.8831C163.183 50.8831 159.515 50.7465 158.052 50.8831C158.032 50.8831 158.012 50.8831 157.993 50.8831Z" fill="#202D37"/>
<path d="M273.622 163.39C273.603 163.39 273.583 163.39 273.564 163.39C273.193 163.351 272.92 163.019 272.959 162.649C278.871 101.966 279.203 26.6879 276.022 20.7172C274.754 18.3562 265.076 14.7855 250.715 11.3708C237.661 8.26841 223.925 6.06353 217.349 5.98548C216.978 5.98548 216.666 5.67329 216.666 5.30255C216.666 4.93182 216.978 4.61963 217.349 4.61963C224.022 4.69768 237.876 6.92206 251.008 10.044C259.925 12.1513 275.164 16.2684 277.193 20.0733C279.242 23.9172 279.573 49.3806 279.203 71.9366C278.695 102.863 276.9 135.976 274.286 162.785C274.266 163.117 273.973 163.39 273.622 163.39Z" fill="#202D37"/>
<path d="M72.959 41.0094C77.7199 45.7314 83.9053 36.8924 77.2712 37.0485C81.5834 30.8046 72.4517 27.3704 70.637 31.8973C69.3492 29.2241 64.1004 30.1412 64.8029 33.2241C61.3492 29.8485 55.1248 33.4582 56.1785 38.1997C49.9151 36.8729 44.6078 44.9899 51.1053 47.1558C49.2322 48.1704 49.0565 52.0533 52.5102 52.8338C54.0322 53.185 55.1444 54.4533 55.6712 55.6241C56.3736 57.146 58.598 58.4533 59.0858 55.3899C59.5736 52.3265 60.9395 51.9753 61.6029 51.4875C62.2663 50.9997 62.8907 47.9753 61.6029 46.8826C63.4175 47.3704 66.1687 46.0436 65.9151 43.0192C67.5931 44.4046 71.6712 44.1704 72.959 41.0094Z" fill="#202D37"/>
<path d="M57.6808 57.9266C56.5686 57.9266 55.5149 56.9315 55.0467 55.8973C54.5979 54.9217 53.6613 53.79 52.354 53.4973C50.5589 53.0876 49.3491 51.8583 49.1345 50.1803C48.9979 49.1266 49.2711 48.0925 49.8369 47.351C47.5735 46.1608 47.1637 44.112 47.6125 42.473C48.3735 39.6632 51.6515 37.0681 55.3784 37.3803C55.2808 35.2144 56.4515 33.1852 58.5588 32.0144C60.432 30.9803 62.5198 30.9608 64.1784 31.8779C64.4515 30.9803 65.1735 30.2583 66.2467 29.8876C67.671 29.3998 69.4662 29.5949 70.5784 30.6486C71.2613 29.7705 72.3149 29.2437 73.5637 29.1461C75.554 29.0096 77.6027 30.0632 78.5393 31.7023C79.0076 32.5413 79.554 34.1998 78.4418 36.4242C80.0808 36.6974 80.6076 37.5949 80.7832 38.1998C81.1735 39.5852 80.1979 41.3998 78.5198 42.3949C76.7637 43.4291 74.832 43.312 73.193 42.0827C72.4905 43.1949 71.3784 43.9754 69.993 44.3266C68.8027 44.6193 67.5735 44.5413 66.5784 44.151C66.4223 45.1461 65.9345 46.0047 65.154 46.6486C64.5101 47.1949 63.6906 47.5266 62.871 47.6242C63.0076 48.073 63.0662 48.5803 63.0466 49.1461C63.0076 50.1998 62.6759 51.5461 62.0125 52.0339C61.8954 52.1315 61.7588 52.2095 61.6223 52.2876C60.9588 52.6973 60.1393 53.2047 59.7686 55.4876C59.4564 57.4193 58.5003 57.8486 57.9345 57.9071C57.8564 57.9266 57.7784 57.9266 57.6808 57.9266ZM54.832 38.7266C52.0418 38.7266 49.5442 40.6974 48.9589 42.8437C48.4906 44.5413 49.3491 45.8291 51.3393 46.512C51.593 46.59 51.7881 46.8242 51.8076 47.0973C51.8271 47.3705 51.6906 47.6242 51.4564 47.7608C50.7735 48.1315 50.3833 49.0681 50.5198 50.0242C50.6759 51.1169 51.4564 51.8973 52.6857 52.19C54.9296 52.6973 56.0418 54.7461 56.3149 55.351C56.6662 56.112 57.3881 56.6193 57.7784 56.5803C58.071 56.5412 58.3247 56.0534 58.4418 55.2925C58.9101 52.3656 60.1784 51.5851 60.9393 51.1364C61.0564 51.0583 61.154 50.9998 61.232 50.9608C61.3881 50.8242 61.7393 49.9266 61.7003 48.873C61.6808 48.2095 61.5052 47.6827 61.193 47.4291C60.9393 47.2144 60.8808 46.8827 61.0174 46.59C61.1735 46.2974 61.4857 46.1608 61.7979 46.2388C62.5979 46.4535 63.593 46.1998 64.2759 45.6339C64.7832 45.2047 65.3686 44.4242 65.2515 43.0974C65.232 42.8242 65.3686 42.5705 65.6223 42.4339C65.8759 42.3169 66.1686 42.3364 66.3832 42.512C67.1052 43.1169 68.4515 43.3315 69.6613 43.0193C70.4027 42.8437 71.7296 42.2974 72.354 40.7559C72.432 40.5413 72.6271 40.3852 72.8418 40.3461C73.0564 40.3071 73.2905 40.3657 73.4662 40.5413C75.3198 42.3949 77.1344 41.6339 77.8174 41.2242C79.0466 40.5022 79.671 39.273 79.4564 38.59C79.3003 38.0242 78.5003 37.712 77.2905 37.751C77.0369 37.751 76.8027 37.6144 76.6662 37.3998C76.5491 37.1656 76.5686 36.8925 76.7052 36.6779C77.7979 35.0779 78.032 33.6144 77.3491 32.4047C76.6857 31.2144 75.1247 30.434 73.6613 30.5315C72.9979 30.5705 71.8076 30.8437 71.2808 32.151C71.1832 32.4047 70.9491 32.5608 70.6759 32.5803C70.4027 32.5803 70.1491 32.4437 70.032 32.1901C69.4857 31.0388 67.8662 30.7657 66.6954 31.1754C66.2271 31.3315 65.193 31.8388 65.4857 33.0486C65.5442 33.3413 65.4271 33.6535 65.154 33.79C64.8808 33.9461 64.5686 33.8876 64.3345 33.6925C62.7149 32.1315 60.5686 32.4437 59.2223 33.2047C57.8174 33.9852 56.3345 35.7218 56.8418 38.0437C56.9003 38.2779 56.8223 38.512 56.6662 38.6681C56.5101 38.8242 56.2759 38.9022 56.0418 38.8632C55.632 38.7656 55.2223 38.7266 54.832 38.7266Z" fill="#202D37"/>
</svg>
