<svg width="289" height="169" viewBox="0 0 289 169" fill="none" xmlns="http://www.w3.org/2000/svg">
<path d="M83.9048 134.258C97.856 144.054 122.812 153.536 150.968 157.654C187.495 162.98 229.388 159.312 259.631 135.624C261.407 134.239 263.144 132.776 264.841 131.254C324.568 77.2243 262.734 -11.2438 196.568 26.122C154.11 50.1024 133.856 58.8439 78.8511 32.2488C34.1682 10.6488 3.45605 77.6926 83.9048 134.258Z" fill="#FBD931"/>
<path d="M1.89499 17.7905C4.11938 7.37104 41.4267 1.81007 53.6998 0.971042C65.973 0.132019 80.0998 0.795436 79.7681 9.7125C79.4364 18.6296 78.2461 46.2003 77.9925 67.2344C80.2364 66.4149 82.5583 65.7124 84.9974 65.2246C84.8413 63.8783 84.412 62.2588 83.3583 60.6978C81.5047 57.9271 81.173 54.571 82.1486 54.1807C84.1974 50.688 94.1681 50.5905 97.6217 52.1124L99.0851 52.8734C99.4754 52.4442 99.8461 52.2295 100.568 52.5222C102.831 53.4002 99.8266 59.4295 97.8949 61.9856C97.1534 62.9807 96.6852 63.7612 96.3925 64.4832C96.6852 64.5027 96.9973 64.5222 97.29 64.5612C106.656 65.4978 107.514 70.5319 102.851 73.01C105.134 74.0636 105.778 76.6002 102.012 79.4295C104.236 80.21 104.685 82.6685 102.949 84.2295C102.5 84.6197 101.856 85.01 101.095 85.3612C104.236 86.649 103.768 89.0685 99.7291 90.8636C99.4169 91.0002 99.1047 91.1173 98.7925 91.2343C102.617 101.868 115.027 117.459 112.197 137.088C109.368 156.737 97.0949 160.346 87.1437 159.546C81.0559 159.059 73.5242 155.098 68.5876 148.581C68.5876 148.581 28.7633 166.434 19.5145 167.781C10.2657 169.127 7.72912 165.42 5.71937 159.644C3.74863 153.888 -1.7733 35.0003 1.89499 17.7905Z" fill="#FFFEF2"/>
<path d="M25.29 153.849C27.2217 153.849 29.9534 153.068 33.8558 151.468C46.5583 146.239 64.1777 139.975 64.3534 139.917C64.7046 139.8 64.8997 139.41 64.7631 139.039C64.6461 138.688 64.2558 138.493 63.8851 138.629C63.7095 138.688 46.0509 144.971 33.329 150.219C28.0412 152.405 25.0363 152.99 23.5924 152.132C22.2266 151.312 21.9924 148.912 21.6607 145.595C21.5827 144.834 21.5046 144.054 21.4071 143.234C19.0656 123.097 16.49 58.2585 17.8168 42.122C18.4412 34.5903 19.2217 30.5707 22.0119 28.0732C24.8022 25.5951 29.6802 24.4634 38.5192 22.3951L42.968 21.361C58.0314 17.8488 68.9192 15.2927 72.0412 17.7708C72.646 18.2586 72.9387 18.922 72.9387 19.8781V69.0878C72.9387 69.4585 73.2509 69.7707 73.6216 69.7707C73.9924 69.7707 74.3046 69.4585 74.3046 69.0878V19.8195C74.3046 18.4537 73.8363 17.3805 72.8997 16.6391C69.2704 13.7513 58.6753 16.2293 42.6753 19.9756L38.2266 21.0098C29.1534 23.1171 24.1778 24.2683 21.1144 27C17.9729 29.7903 17.1144 34.0439 16.4705 41.9659C15.1437 58.161 17.7193 123.176 20.0802 143.351C20.1778 144.171 20.2558 144.951 20.3339 145.693C20.7046 149.4 20.9583 152.093 22.929 153.263C23.5534 153.654 24.3144 153.849 25.29 153.849Z" fill="#202D37"/>
<path d="M16.0608 168.756C17.1534 168.756 18.3437 168.658 19.651 168.463C28.8803 167.117 67.2802 149.946 68.8998 149.224C69.251 149.068 69.4071 148.658 69.251 148.327C69.0949 147.976 68.6851 147.819 68.3534 147.976C67.9632 148.151 28.5095 165.79 19.4559 167.117C10.3047 168.444 8.19736 164.6 6.40224 159.429C5.42663 156.639 3.55346 125.595 2.38273 92.9707C0.958344 53.2245 1.01688 25.1659 2.57785 17.9074C3.47541 13.7318 10.9486 9.75132 24.1974 6.43426C34.6364 3.81962 46.8315 2.10255 53.7583 1.63426C66.1095 0.795236 74.051 1.98548 77.3485 5.16596C78.5973 6.37572 79.1632 7.83913 79.1046 9.67328C79.0656 10.9221 78.9876 12.5416 78.9095 14.4538C78.4412 26.5708 77.5436 49.1269 77.3095 67.2147C77.3095 67.5854 77.6022 67.8976 77.9924 67.8976C78.3632 67.8976 78.6754 67.6049 78.6754 67.2147C78.9095 49.1464 79.7876 26.6098 80.2754 14.4928C80.3534 12.5806 80.4119 10.9611 80.4705 9.7123C80.5485 7.50743 79.8266 5.65377 78.3046 4.19036C74.6753 0.658652 66.6168 -0.609641 53.6803 0.268407C43.8656 0.931821 3.70957 6.14157 1.25104 17.6342C-1.01237 28.2489 0.353455 73.9074 1.03638 93.0293C2.10955 122.688 4.00224 156.639 5.13394 159.878C6.07053 162.551 7.26078 165.263 9.56322 166.941C11.2218 168.171 13.3291 168.756 16.0608 168.756Z" fill="#202D37"/>
<path d="M78.2657 97.322C79.7876 94.2586 81.1144 90.7659 82.09 86.5708C84.6266 84.5415 86.051 81.4196 86.4998 76.7367C86.4998 76.7367 89.4071 76.8928 92.0803 76.5806C88.6071 78.6489 88.9388 82.2391 92.451 82.7659L92.3925 83.1562C91.4364 83.5269 91.0656 86.083 92.8217 86.7659C88.6071 90.844 93.5242 93.1074 98.7925 91.2342C102.617 101.868 115.027 117.459 112.197 137.088C109.368 156.737 97.0949 160.346 87.1437 159.546C81.0559 159.059 73.5242 155.098 68.5876 148.58C66.5388 145.888 64.9388 142.746 64.0803 139.234C63.612 137.361 63.3583 135.39 63.3583 133.302C63.4169 115.215 72.2364 109.517 78.2657 97.322Z" fill="#0088FF"/>
<path d="M96.8997 75.0589C102.948 74.9028 106.207 72.1516 106.305 69.5369C106.383 67.254 104.08 64.5613 97.368 63.8784C97.0558 63.8394 96.7631 63.8199 96.4509 63.8004C96.0802 63.7613 95.7485 64.054 95.7094 64.4248C95.6704 64.7955 95.9631 65.1272 96.3338 65.1662C96.6265 65.1857 96.9192 65.2052 97.2119 65.2443C102.987 65.8296 104.978 67.8979 104.919 69.4979C104.841 71.4296 101.992 73.576 96.8607 73.7126C96.4899 73.7321 96.1777 74.0443 96.1973 74.415C96.2168 74.7662 96.529 75.0589 96.8997 75.0589Z" fill="#202D37"/>
<path d="M41.0753 80.795C45.6217 80.795 49.7582 80.3658 53.4655 79.4877C58.6558 78.2584 61.5241 76.5023 62.7338 75.7414C62.8314 75.6828 62.9094 75.6438 62.9875 75.5853C69.5826 71.6243 76.7241 67.6048 85.1143 65.8877C85.485 65.8097 85.7192 65.4585 85.6411 65.0877C85.5631 64.717 85.2118 64.4828 84.8411 64.5609C76.2362 66.3365 68.9777 70.4146 62.285 74.4341C62.207 74.4731 62.129 74.5316 62.0314 74.5902C54.7729 79.0584 44.1777 80.4438 30.5582 78.7267C30.1875 78.6877 29.8363 78.9414 29.7973 79.3121C29.7582 79.6828 30.0119 80.034 30.3826 80.0731C34.1485 80.5609 37.7192 80.795 41.0753 80.795Z" fill="#202D37"/>
<path d="M96.3926 64.4833C95.9438 65.615 95.9438 66.6296 96.0023 68.1906L96.4511 68.2882C93.017 69.8101 87.9828 69.0491 87.9828 69.0491C86.7731 68.7369 85.6609 68.5223 84.8804 68.3857C84.8804 68.3857 85.1926 67.0589 84.978 65.2248C84.8219 63.8784 84.3926 62.2589 83.3389 60.6979C81.4658 57.9272 80.4902 55.5857 81.3877 53.1857C82.8121 49.3809 95.6901 47.176 101.115 52.8345C102.597 54.3955 101.68 57.7906 97.895 61.9662C97.056 62.9028 96.6853 63.7613 96.3926 64.4833Z" fill="#0088FF"/>
<path d="M93.3874 83.507C95.0459 83.507 97.1532 82.9802 99.6313 81.6924C104.451 79.1948 105.426 76.8924 105.407 75.4095C105.387 74.1217 104.568 73.0095 103.163 72.3656C102.812 72.2095 102.422 72.3656 102.265 72.6973C102.109 73.0485 102.265 73.4387 102.597 73.5948C103.124 73.8485 104.022 74.4143 104.041 75.429C104.061 76.1509 103.592 78.0826 99.0069 80.4631C94.3825 82.8631 91.3971 82.3753 90.5776 80.9119C90.0313 79.9363 90.4996 78.3168 92.4703 77.146C92.802 76.9509 92.8996 76.5412 92.7045 76.2095C92.5093 75.8777 92.0996 75.7802 91.7679 75.9753C89.0557 77.5948 88.5093 80.0143 89.3874 81.5753C90.0118 82.746 91.3776 83.507 93.3874 83.507Z" fill="#202D37"/>
<path d="M94.2267 87.644C97.2511 87.644 101.739 86.2587 103.417 84.7367C104.432 83.8196 104.88 82.5514 104.627 81.3611C104.373 80.1514 103.495 79.2148 102.207 78.7855C101.856 78.6684 101.466 78.8636 101.349 79.2148C101.232 79.566 101.407 79.9562 101.778 80.0733C102.597 80.3465 103.144 80.9318 103.3 81.6343C103.456 82.3757 103.163 83.1367 102.5 83.7221C100.919 85.166 96.2559 86.4928 93.6218 86.2587C92.6852 86.1806 92.334 85.4977 92.2169 84.9513C92.0608 84.1709 92.3145 83.4879 92.4706 83.4099C92.8413 83.3318 93.0559 82.9611 92.9779 82.5904C92.8998 82.2196 92.5291 81.9855 92.1584 82.0831C91.1632 82.2977 90.734 83.566 90.812 84.7172C90.9291 86.3562 91.9828 87.4879 93.5047 87.6245C93.7388 87.644 93.973 87.644 94.2267 87.644Z" fill="#202D37"/>
<path d="M95.1633 92.5805C96.6657 92.5805 98.3828 92.2293 100.022 91.4878C102.5 90.3756 103.866 88.9708 103.846 87.5073C103.827 86.8439 103.495 85.5951 101.368 84.7171C101.017 84.5805 100.627 84.7366 100.471 85.0878C100.334 85.439 100.49 85.8293 100.841 85.9854C101.875 86.4146 102.461 86.961 102.48 87.5268C102.48 88.1903 101.7 89.2439 99.4755 90.239C96.1584 91.722 92.9389 91.3903 92.1194 90.1805C91.6706 89.4976 92.0999 88.4439 93.3097 87.2537C93.5828 87 93.5828 86.5512 93.3292 86.2976C93.0755 86.0244 92.6267 86.0244 92.3731 86.2781C89.9926 88.5805 90.4804 90.2 90.9877 90.9415C91.7096 92.0146 93.2901 92.5805 95.1633 92.5805Z" fill="#202D37"/>
<path d="M73.6413 90.2196C73.6608 90.2196 73.6998 90.2196 73.7193 90.2196C82.1291 89.283 86.1876 85.4391 87.1242 77.4586C89.4266 77.5367 95.4559 77.5367 96.8998 75.4489C97.1925 75.0391 97.4266 74.3562 97.0364 73.4391C95.1632 69.166 84.9193 67.6635 83.7486 67.5074C83.3778 67.4489 83.0266 67.7221 82.9876 68.0928C82.9291 68.4635 83.2022 68.8147 83.573 68.8538C86.5193 69.244 94.4608 70.9416 95.7876 73.966C95.9437 74.3367 95.8852 74.5123 95.7876 74.6489C94.9291 75.8977 89.8754 76.2098 86.5583 76.0342C86.1876 76.0147 85.8754 76.2879 85.8364 76.6586C85.0754 84.522 81.6413 87.9367 73.5632 88.8342C73.1925 88.8733 72.9193 89.205 72.9584 89.5952C72.9974 89.9659 73.2901 90.2196 73.6413 90.2196Z" fill="#202D37"/>
<path d="M38.1682 100.776C49.4268 100.776 59.1438 96.2684 62.695 94.6294C63.2609 94.3757 63.8267 94.1026 64.0219 94.044C64.3341 94.0831 65.3877 94.5318 66.3243 94.9221C69.2511 96.1514 74.1292 98.2001 78.3243 98.005C78.695 97.9855 78.9877 97.6733 78.9682 97.2831C78.9487 96.9123 78.6365 96.6196 78.2463 96.6392C74.3633 96.8148 69.6609 94.844 66.8511 93.6733C65.095 92.9318 64.3536 92.6392 63.8658 92.6977C63.5926 92.7367 63.2414 92.8928 62.1292 93.4001C58.0512 95.2928 45.6609 101.029 32.3731 98.9806C32.0024 98.9221 31.6512 99.1757 31.5926 99.5465C31.5341 99.9172 31.7877 100.268 32.1585 100.327C34.1877 100.639 36.1975 100.776 38.1682 100.776Z" fill="#202D37"/>
<path d="M90.9096 69.9267C92.9194 69.9267 95.5535 69.6536 97.5242 68.5219C97.8559 68.3267 97.9535 67.917 97.7779 67.5853C97.5828 67.2536 97.173 67.156 96.8413 67.3316C93.6803 69.1853 88.1584 68.3853 88.0998 68.3658C87.7291 68.3072 87.3779 68.5609 87.3194 68.9316C87.2608 69.3023 87.5145 69.6536 87.8852 69.7121C87.9828 69.7316 89.2316 69.9267 90.9096 69.9267Z" fill="#202D37"/>
<path d="M90.5387 57.049C91.1826 57.049 91.8851 57.0099 92.646 56.9514C95.0265 56.7368 96.8021 56.0929 98.0899 55.0002C98.3826 54.7465 98.4216 54.3173 98.168 54.0441C97.9143 53.7514 97.4851 53.7124 97.2119 53.966C96.1582 54.8636 94.6168 55.3904 92.529 55.5856C88.3534 55.9758 85.9924 55.0978 84.4314 54.2782C84.0997 54.1026 83.6899 54.2392 83.5143 54.5709C83.3387 54.9026 83.4753 55.3124 83.807 55.488C85.2314 56.249 87.2802 57.049 90.5387 57.049Z" fill="#202D37"/>
<path d="M120.9 56.2877C120.998 56.2877 121.095 56.2682 121.193 56.2097C121.524 56.0536 121.68 55.6438 121.505 55.2926C121.427 55.1365 114.071 39.956 111.632 34.7072C111.476 34.356 111.066 34.2194 110.734 34.3755C110.383 34.5316 110.246 34.9414 110.402 35.2731C112.841 40.5414 120.198 55.7218 120.276 55.8779C120.412 56.1511 120.646 56.2877 120.9 56.2877Z" fill="#202D37"/>
<path d="M113.017 54.2393C113.29 54.2393 113.583 54.2002 113.856 54.1222C114.714 53.8685 115.397 53.2246 115.787 52.3271C116.158 51.4685 116.197 50.4929 115.904 49.5368C115.3 47.5466 113.407 46.3368 111.67 46.8637C110.812 47.1173 110.129 47.7612 109.739 48.6588C109.368 49.5173 109.329 50.4929 109.622 51.449C110.109 53.1271 111.534 54.2393 113.017 54.2393ZM112.509 48.1125C113.387 48.1125 114.265 48.8539 114.597 49.9466C114.792 50.5905 114.773 51.2344 114.519 51.8003C114.304 52.3076 113.914 52.6783 113.446 52.8149C112.431 53.1271 111.3 52.3271 110.909 51.0588C110.714 50.4149 110.734 49.771 110.987 49.2051C111.202 48.6978 111.592 48.3271 112.061 48.1905C112.197 48.132 112.353 48.1125 112.509 48.1125Z" fill="#202D37"/>
<path d="M121.036 44.5609C121.544 44.5609 122.051 44.4439 122.519 44.1707C123.3 43.7219 123.827 42.9414 124.002 41.9853C124.158 41.0683 123.983 40.0926 123.495 39.2341C122.461 37.4195 120.314 36.6975 118.753 37.5951C117.173 38.4926 116.744 40.717 117.797 42.5122C118.5 43.8195 119.788 44.5609 121.036 44.5609ZM120.217 38.5902C120.978 38.5902 121.797 39.0975 122.285 39.9365C122.617 40.5219 122.753 41.1658 122.636 41.7512C122.539 42.2975 122.246 42.7463 121.817 42.9805C120.9 43.5073 119.612 43 118.949 41.8488C118.285 40.6975 118.48 39.3317 119.397 38.7853C119.651 38.6488 119.924 38.5902 120.217 38.5902Z" fill="#202D37"/>
<path d="M128.627 55.7416C129.017 55.7416 129.31 55.4294 129.31 55.0587C129.31 54.8245 129.271 49.4392 128.958 47.6246C128.9 47.2538 128.549 47.0002 128.178 47.0587C127.807 47.1172 127.553 47.4684 127.612 47.8392C127.905 49.5367 127.944 55.0001 127.944 55.0587C127.944 55.4294 128.256 55.7416 128.627 55.7416Z" fill="#202D37"/>
<path d="M131.007 50.8831C131.358 50.8831 131.651 50.6099 131.69 50.2587C131.729 49.888 131.436 49.5563 131.066 49.5172C129.524 49.3807 125.895 49.5172 125.739 49.5172C125.368 49.5368 125.075 49.8489 125.075 50.2197C125.095 50.5904 125.388 50.8831 125.778 50.8831C125.817 50.8831 129.485 50.7465 130.949 50.8831C130.968 50.8831 130.988 50.8831 131.007 50.8831Z" fill="#202D37"/>
<path d="M15.3778 163.39C15.3973 163.39 15.4168 163.39 15.4364 163.39C15.8071 163.351 16.0803 163.019 16.0412 162.649C10.129 101.966 9.79734 26.6879 12.9778 20.7172C14.2461 18.3562 23.9241 14.7855 38.2851 11.3708C51.3388 8.26841 65.0753 6.06353 71.6509 5.98548C72.0217 5.98548 72.3339 5.67329 72.3339 5.30256C72.3339 4.93182 72.0217 4.61963 71.6509 4.61963C64.9778 4.69768 51.1241 6.92206 37.9924 10.044C29.0754 12.1513 13.8364 16.2684 11.8071 20.0733C9.75832 23.9172 9.4266 49.3806 9.79733 71.9366C10.3046 102.863 12.0998 135.976 14.7144 162.785C14.7339 163.117 15.0266 163.39 15.3778 163.39Z" fill="#202D37"/>
<path d="M76.8523 137H73.7585V128.273H76.8778C77.7557 128.273 78.5114 128.447 79.1449 128.797C79.7784 129.143 80.2656 129.642 80.6065 130.293C80.9503 130.943 81.1222 131.722 81.1222 132.628C81.1222 133.537 80.9503 134.318 80.6065 134.972C80.2656 135.625 79.7756 136.126 79.1364 136.476C78.5 136.825 77.7386 137 76.8523 137ZM75.6037 135.419H76.7756C77.321 135.419 77.7798 135.322 78.152 135.129C78.527 134.933 78.8082 134.631 78.9957 134.222C79.1861 133.81 79.2812 133.278 79.2812 132.628C79.2812 131.983 79.1861 131.456 78.9957 131.047C78.8082 130.638 78.5284 130.337 78.1562 130.143C77.7841 129.95 77.3253 129.854 76.7798 129.854H75.6037V135.419ZM83.5011 137H81.5238L84.5366 128.273H86.9144L89.9229 137H87.9457L85.7596 130.267H85.6914L83.5011 137ZM83.3775 133.57H88.0479V135.01H83.3775V133.57ZM89.5746 129.794V128.273H96.7422V129.794H94.0703V137H92.2464V129.794H89.5746ZM98.3604 137H96.3832L99.396 128.273H101.774L104.782 137H102.805L100.619 130.267H100.551L98.3604 137ZM98.2369 133.57H102.907V135.01H98.2369V133.57Z" fill="white"/>
<path fill-rule="evenodd" clip-rule="evenodd" d="M212 138C191.013 138 174 120.987 174 100C174 79.0132 191.013 62 212 62C232.987 62 250 79.0132 250 100C250 120.987 232.987 138 212 138ZM212 119C201.507 119 193 110.493 193 100C193 89.5066 201.507 81 212 81C222.493 81 231 89.5066 231 100C231 110.493 222.493 119 212 119Z" fill="url(#paint0_linear_193_1038)"/>
<path d="M199 146H211C213.761 146 216 143.761 216 141V59C216 56.2386 213.761 54 211 54H210.004C195.978 54 183.228 62.1469 177.335 74.8755L163.972 103.74C163.052 105.728 164.504 108 166.695 108H173V126C173 129.314 175.686 132 179 132H191C192.657 132 194 133.343 194 135V141C194 143.761 196.239 146 199 146Z" fill="#1B70F0"/>
<circle cx="11" cy="11" r="11" transform="matrix(-1 0 0 1 223 89)" fill="#1B70F0"/>
<circle cx="3" cy="3" r="3" transform="matrix(-1 0 0 1 184 86)" fill="white"/>
<path d="M245.402 84.5C246.557 82.5 249.443 82.5 250.598 84.5L255.794 93.5C256.949 95.5 255.506 98 253.196 98H242.804C240.494 98 239.051 95.5 240.206 93.5L245.402 84.5Z" fill="url(#paint1_linear_193_1038)"/>
<path d="M245.402 115.5C246.557 117.5 249.443 117.5 250.598 115.5L255.794 106.5C256.949 104.5 255.506 102 253.196 102H242.804C240.494 102 239.051 104.5 240.206 106.5L245.402 115.5Z" fill="url(#paint2_linear_193_1038)"/>
<path d="M206 100C206 103.314 208.686 106 212 106C212.977 106 213.9 105.766 214.715 105.352C216.088 104.654 215.27 103 213.73 103H213C212.448 103 212 102.552 212 102C212 101.448 212.448 101 213 101H216.912C217.492 101 218 100.58 218 100C218 96.6863 215.314 94 212 94C211.023 94 210.1 94.2335 209.285 94.6478C207.912 95.3457 208.73 97 210.27 97H211C211.552 97 212 97.4477 212 98C212 98.5523 211.552 99 211 99H207.088C206.508 99 206 99.4201 206 100Z" fill="url(#paint3_linear_193_1038)"/>
<path d="M203 72C203 73.5913 202.368 75.1174 201.243 76.2426C200.117 77.3679 198.591 78 197 78C195.409 78 193.883 77.3679 192.757 76.2426C191.632 75.1174 191 73.5913 191 72" stroke="url(#paint4_linear_193_1038)" stroke-width="2" stroke-linecap="round"/>
<path d="M197 70C197 68.4087 197.632 66.8826 198.757 65.7574C199.883 64.6321 201.409 64 203 64C204.591 64 206.117 64.6321 207.243 65.7574C208.368 66.8826 209 68.4087 209 70" stroke="url(#paint5_linear_193_1038)" stroke-width="2" stroke-linecap="round"/>
<path d="M207.25 132.875C207.25 133.911 208.089 134.75 209.125 134.75C210.161 134.75 211 133.911 211 132.875C211 131.839 210.161 131 209.125 131C208.089 131 207.25 131.839 207.25 132.875Z" fill="url(#paint6_linear_193_1038)"/>
<path d="M207.25 139.125C207.25 140.161 208.089 141 209.125 141C210.161 141 211 140.161 211 139.125C211 138.089 210.161 137.25 209.125 137.25C208.089 137.25 207.25 138.089 207.25 139.125Z" fill="url(#paint7_linear_193_1038)"/>
<path d="M202.875 141C201.839 141 201 140.161 201 139.125C201 138.089 201.839 137.25 202.875 137.25C203.911 137.25 204.75 138.089 204.75 139.125C204.75 140.161 203.911 141 202.875 141Z" fill="url(#paint8_linear_193_1038)"/>
<path d="M229.034 70H223.761L231.795 46.7273H238.136L246.159 70H240.886L235.057 52.0455H234.875L229.034 70ZM228.705 60.8523H241.159V64.6932H228.705V60.8523ZM253.881 46.7273V70H248.96V46.7273H253.881Z" fill="#1B70F0"/>
<defs>
<linearGradient id="paint0_linear_193_1038" x1="193.5" y1="100" x2="250" y2="100" gradientUnits="userSpaceOnUse">
<stop stop-color="#96C6FF"/>
<stop offset="1" stop-color="#F3F8FF"/>
</linearGradient>
<linearGradient id="paint1_linear_193_1038" x1="256" y1="98.5" x2="230.024" y2="101.694" gradientUnits="userSpaceOnUse">
<stop stop-color="#ECF4FF"/>
<stop offset="1" stop-color="#8EC2FF"/>
</linearGradient>
<linearGradient id="paint2_linear_193_1038" x1="256" y1="98.5" x2="230.024" y2="101.694" gradientUnits="userSpaceOnUse">
<stop stop-color="#ECF4FF"/>
<stop offset="1" stop-color="#8EC2FF"/>
</linearGradient>
<linearGradient id="paint3_linear_193_1038" x1="202.5" y1="97" x2="213.761" y2="106.678" gradientUnits="userSpaceOnUse">
<stop stop-color="#8EC2FF"/>
<stop offset="1" stop-color="#DBEAFF"/>
</linearGradient>
<linearGradient id="paint4_linear_193_1038" x1="197" y1="78" x2="197" y2="72" gradientUnits="userSpaceOnUse">
<stop stop-color="#BCDBFF"/>
<stop offset="1" stop-color="#639EF8"/>
</linearGradient>
<linearGradient id="paint5_linear_193_1038" x1="203" y1="64" x2="203" y2="70" gradientUnits="userSpaceOnUse">
<stop stop-color="#BCDBFF"/>
<stop offset="1" stop-color="#639EF8"/>
</linearGradient>
<linearGradient id="paint6_linear_193_1038" x1="201" y1="131" x2="204.011" y2="142.786" gradientUnits="userSpaceOnUse">
<stop stop-color="#639EF8"/>
<stop offset="1" stop-color="#B6D7FF"/>
</linearGradient>
<linearGradient id="paint7_linear_193_1038" x1="201" y1="131" x2="204.011" y2="142.786" gradientUnits="userSpaceOnUse">
<stop stop-color="#639EF8"/>
<stop offset="1" stop-color="#B6D7FF"/>
</linearGradient>
<linearGradient id="paint8_linear_193_1038" x1="201" y1="131" x2="204.011" y2="142.786" gradientUnits="userSpaceOnUse">
<stop stop-color="#639EF8"/>
<stop offset="1" stop-color="#B6D7FF"/>
</linearGradient>
</defs>
</svg>
